<?xml version="1.0" encoding="UTF-8" standalone="yes"?>
<!DOCTYPE svg PUBLIC "-//W3C//DTD SVG 1.1//EN" "http://www.w3.org/Graphics/SVG/1.1/DTD/svg11.dtd">

<svg width="333" height="240" viewBox="0 0 333 240" xmlns="http://www.w3.org/2000/svg" xmlns:xlink="http://www.w3.org/1999/xlink" version="1.1" baseProfile="full">
    <g transform="scale(1.702128,-1.702128) translate(0,-141)">
        <path d="M 6.000000 3.000000 L 191.106472 3.000000 C 192.763326 3.000000 194.106472 4.343146 194.106472 6.000000 L 194.106472 135.991649 C 194.106472 137.648503 192.763326 138.991649 191.106472 138.991649 L 6.000000 138.991649 C 4.343146 138.991649 3.000000 137.648503 3.000000 135.991649 L 3.000000 6.000000 C 3.000000 4.343146 4.343146 3.000000 6.000000 3.000000 Z M 6.000000 1.000000 C 3.238576 1.000000 1.000000 3.238576 1.000000 6.000000 L 1.000000 135.991649 C 1.000000 138.753073 3.238576 140.991649 6.000000 140.991649 L 191.106472 140.991649 C 193.867896 140.991649 196.106472 138.753073 196.106472 135.991649 L 196.106472 6.000000 C 196.106472 3.238576 193.867896 1.000000 191.106472 1.000000 L 6.000000 1.000000 Z" transform="scale(1.000000,1.000000) translate(-0.217849,-0.830898)" opacity="1.000000"></path>
        <path d="M 1.000000 126.457564 L 170.344318 126.457564 L 170.344318 1.000000 L 1.000000 1.000000 Z" transform="scale(1.000000,1.000000) translate(7.732521,7.271218)" opacity="1.000000"></path>
        <path d="M 5.979123 3.989562 C 5.979123 5.088366 5.088366 5.979123 3.989562 5.979123 C 2.890757 5.979123 2.000000 5.088366 2.000000 3.989562 C 2.000000 2.890757 2.890757 2.000000 3.989562 2.000000 C 5.088366 2.000000 5.979123 2.890757 5.979123 3.989562 Z M 6.979123 3.989562 C 6.979123 2.338472 5.640651 1.000000 3.989562 1.000000 C 2.338472 1.000000 1.000000 2.338472 1.000000 3.989562 C 1.000000 5.640651 2.338472 6.979123 3.989562 6.979123 C 5.640651 6.979123 6.979123 5.640651 6.979123 3.989562 Z" transform="scale(1.000000,1.000000) translate(183.269072,66.175365)" opacity="1.000000"></path>
        <path d="M 9.070032 5.535016 C 9.070032 7.487352 7.487352 9.070032 5.535016 9.070032 C 3.582681 9.070032 2.000000 7.487352 2.000000 5.535016 C 2.000000 3.582681 3.582681 2.000000 5.535016 2.000000 C 7.487352 2.000000 9.070032 3.582681 9.070032 5.535016 Z M 10.070032 5.535016 C 10.070032 3.030396 8.039636 1.000000 5.535016 1.000000 C 3.030396 1.000000 1.000000 3.030396 1.000000 5.535016 C 1.000000 8.039636 3.030396 10.070032 5.535016 10.070032 C 8.039636 10.070032 10.070032 8.039636 10.070032 5.535016 Z" transform="scale(1.000000,1.000000) translate(181.723617,64.629911)" opacity="1.000000"></path>
        <path d="M 8.983398 84.986329 L 13.744141 64.380860 L 14.769531 58.643555 L 15.819336 64.258790 L 19.872070 84.986329 L 27.806641 84.986329 L 32.079102 64.380860 L 33.177734 58.643555 L 34.276367 64.161134 L 39.085938 84.986329 L 46.727539 84.986329 L 36.595703 49.000001 L 29.417969 49.000001 L 25.072266 70.044923 L 23.802734 77.002930 L 22.533203 70.044923 L 18.187500 49.000001 L 11.205078 49.000001 L 1.000000 84.986329 Z M 77.879883 78.614259 L 58.836914 78.614259 L 58.836914 70.972657 L 76.317383 70.972657 L 76.317383 64.722657 L 58.836914 64.722657 L 58.836914 55.469727 L 78.758789 55.469727 L 78.758789 49.000001 L 51.488281 49.000001 L 51.488281 84.986329 L 77.879883 84.986329 Z M 91.917969 78.736329 L 91.917969 70.801759 L 100.755859 70.801759 Q 103.124023 70.801759 104.601074 71.692872 Q 106.078125 72.583985 106.078125 74.854493 Q 106.078125 77.369141 104.125000 78.174805 Q 102.440430 78.736329 99.828125 78.736329 Z M 91.917969 64.844727 L 91.917969 55.250001 L 100.755859 55.250001 Q 103.124023 55.250001 104.442383 55.884766 Q 106.834961 57.056641 106.834961 60.376954 Q 106.834961 63.184571 104.515625 64.234376 Q 103.221680 64.820313 100.877930 64.844727 Z M 102.220703 84.986329 Q 108.836914 84.888673 111.595703 81.153321 Q 113.255859 78.858399 113.255859 75.660157 Q 113.255859 72.364259 111.595703 70.362305 Q 110.667969 69.239259 108.861328 68.311524 Q 111.620117 67.310548 113.023926 65.137696 Q 114.427734 62.964844 114.427734 59.864259 Q 114.427734 56.666016 112.816406 54.126954 Q 111.791016 52.442384 110.252930 51.294923 Q 108.519531 49.976563 106.163574 49.488282 Q 103.807617 49.000001 101.048828 49.000001 L 84.740234 49.000001 L 84.740234 84.986329 Z M 34.044434 25.536133 Q 34.044434 28.343750 32.567383 29.540039 Q 31.090332 30.736328 28.429199 30.736328 L 21.422363 30.736328 L 21.422363 20.140625 L 28.429199 20.140625 Q 31.090332 20.140625 32.567383 21.434570 Q 34.044434 22.728516 34.044434 25.536133 Z M 41.490723 25.584961 Q 41.490723 19.212891 38.268066 16.576172 Q 35.045410 13.939453 29.063965 13.939453 L 21.422363 13.939453 L 21.422363 1.000000 L 13.951660 1.000000 L 13.951660 36.986328 L 29.625488 36.986328 Q 35.045410 36.986328 38.268066 34.203125 Q 41.490723 31.419922 41.490723 25.584961 Z M 67.394043 25.536133 Q 67.394043 28.343750 65.916992 29.540039 Q 64.439941 30.736328 61.778809 30.736328 L 54.771973 30.736328 L 54.771973 20.140625 L 61.778809 20.140625 Q 64.439941 20.140625 65.916992 21.434570 Q 67.394043 22.728516 67.394043 25.536133 Z M 74.840332 25.584961 Q 74.840332 19.212891 71.617676 16.576172 Q 68.395020 13.939453 62.413574 13.939453 L 54.771973 13.939453 L 54.771973 1.000000 L 47.301270 1.000000 L 47.301270 36.986328 L 62.975098 36.986328 Q 68.395020 36.986328 71.617676 34.203125 Q 74.840332 31.419922 74.840332 25.584961 Z M 106.627441 36.986328 L 106.627441 30.614258 L 95.860840 30.614258 L 95.860840 1.000000 L 88.292480 1.000000 L 88.292480 30.614258 L 77.477051 30.614258 L 77.477051 36.986328 Z" transform="scale(1.000000,1.000000) translate(35.690820,28.006836)" fill="#ffffff" opacity="1.000000"></path>
    </g>
</svg>